<svg width="33" height="39" viewBox="0 0 33 39" fill="none" xmlns="http://www.w3.org/2000/svg">
<g filter="url(#filter0_d)">
<path d="M16.5 0C13.186 0.00380909 10.0088 1.28813 7.66549 3.57123C5.32214 5.85433 4.00392 8.94978 4.00001 12.1786C3.99604 14.8171 4.88067 17.3841 6.51819 19.4857C6.51819 19.4857 6.8591 19.923 6.91478 19.9861L16.5 31L26.0898 19.9806C26.1398 19.9219 26.4818 19.4857 26.4818 19.4857L26.4829 19.4824C28.1197 17.3817 29.0039 14.8159 29 12.1786C28.9961 8.94978 27.6779 5.85433 25.3345 3.57123C22.9911 1.28813 19.814 0.00380909 16.5 0ZM16.5 16.6071C15.601 16.6071 14.7222 16.3474 13.9747 15.8608C13.2272 15.3742 12.6446 14.6825 12.3006 13.8733C11.9565 13.0641 11.8665 12.1737 12.0419 11.3146C12.2173 10.4555 12.6502 9.66645 13.2859 9.0471C13.9216 8.42775 14.7315 8.00597 15.6132 7.83509C16.495 7.66422 17.4089 7.75192 18.2395 8.0871C19.07 8.42229 19.7799 8.98991 20.2794 9.71819C20.7789 10.4465 21.0454 11.3027 21.0454 12.1786C21.0439 13.3527 20.5646 14.4782 19.7125 15.3084C18.8603 16.1386 17.7051 16.6057 16.5 16.6071Z" fill="white"/>
</g>
<defs>
<filter id="filter0_d" x="0" y="0" width="33" height="39" filterUnits="userSpaceOnUse" color-interpolation-filters="sRGB">
<feFlood flood-opacity="0" result="BackgroundImageFix"/>
<feColorMatrix in="SourceAlpha" type="matrix" values="0 0 0 0 0 0 0 0 0 0 0 0 0 0 0 0 0 0 127 0" result="hardAlpha"/>
<feOffset dy="4"/>
<feGaussianBlur stdDeviation="2"/>
<feComposite in2="hardAlpha" operator="out"/>
<feColorMatrix type="matrix" values="0 0 0 0 0 0 0 0 0 0 0 0 0 0 0 0 0 0 0.25 0"/>
<feBlend mode="normal" in2="BackgroundImageFix" result="effect1_dropShadow"/>
<feBlend mode="normal" in="SourceGraphic" in2="effect1_dropShadow" result="shape"/>
</filter>
</defs>
</svg>
