<svg width="40" height="40" viewBox="0 0 40 40" fill="none" xmlns="http://www.w3.org/2000/svg">
<g filter="url(#filter0_d)">
<path fill-rule="evenodd" clip-rule="evenodd" d="M20 30.4C27.9528 30.4 34.4 23.9528 34.4 16C34.4 8.0472 27.9528 1.6 20 1.6C12.0472 1.6 5.6 8.0472 5.6 16C5.6 23.9528 12.0472 30.4 20 30.4ZM20 32C28.8368 32 36 24.8368 36 16C36 7.1632 28.8368 0 20 0C11.1632 0 4 7.1632 4 16C4 24.8368 11.1632 32 20 32Z" fill="white"/>
</g>
<path d="M10.4 25.304C10.4 24.4776 11.0176 23.7792 11.84 23.688C18.012 23.0048 22.016 23.0664 28.1744 23.7032C28.4819 23.7355 28.7734 23.8567 29.0132 24.0519C29.253 24.2471 29.4308 24.5079 29.5248 24.8025C29.6188 25.0971 29.625 25.4127 29.5426 25.7107C29.4602 26.0088 29.2928 26.2764 29.0608 26.4808C21.7928 32.816 17.6392 32.7288 10.912 26.4872C10.584 26.1832 10.4 25.7512 10.4 25.3048V25.304Z" fill="white"/>
<path fill-rule="evenodd" clip-rule="evenodd" d="M28.092 24.4983C21.9824 23.8663 18.036 23.8071 11.9272 24.4831C11.516 24.5287 11.2 24.8799 11.2 25.3047C11.2 25.5335 11.2952 25.7503 11.456 25.9007C14.7904 28.9935 17.3168 30.3911 19.7864 30.3999C22.2648 30.4087 24.9272 29.0223 28.5352 25.8783C28.6498 25.7763 28.7323 25.6432 28.7727 25.4951C28.8131 25.3471 28.8096 25.1905 28.7627 25.0444C28.7157 24.8983 28.6273 24.769 28.5083 24.6722C28.3892 24.5754 28.2446 24.5153 28.092 24.4991V24.4983ZM11.752 22.8927C17.9888 22.2023 22.0512 22.2647 28.2576 22.9071C28.7202 22.9554 29.1588 23.1376 29.5195 23.4312C29.8802 23.7249 30.1475 24.1174 30.2886 24.5606C30.4297 25.0039 30.4385 25.4786 30.3139 25.9268C30.1893 26.375 29.9368 26.7771 29.5872 27.0839C25.9272 30.2743 22.8792 32.0119 19.7816 31.9999C16.6752 31.9887 13.7616 30.2215 10.3688 27.0735C10.1259 26.8473 9.93224 26.5733 9.79996 26.2689C9.66769 25.9644 9.59962 25.6359 9.60001 25.3039C9.59884 24.7075 9.81777 24.1316 10.2149 23.6865C10.612 23.2414 11.1593 22.9585 11.752 22.8919V22.8927Z" fill="white"/>
<path d="M26.4 12.8C26.4 14.4973 25.7257 16.1252 24.5255 17.3254C23.3253 18.5257 21.6974 19.2 20 19.2C18.3026 19.2 16.6748 18.5257 15.4745 17.3254C14.2743 16.1252 13.6 14.4973 13.6 12.8C13.6 11.1026 14.2743 9.47471 15.4745 8.27448C16.6748 7.07425 18.3026 6.39996 20 6.39996C21.6974 6.39996 23.3253 7.07425 24.5255 8.27448C25.7257 9.47471 26.4 11.1026 26.4 12.8Z" fill="white"/>
<path fill-rule="evenodd" clip-rule="evenodd" d="M20 17.6C21.273 17.6 22.4939 17.0942 23.3941 16.1941C24.2943 15.2939 24.8 14.073 24.8 12.8C24.8 11.5269 24.2943 10.306 23.3941 9.40585C22.4939 8.50568 21.273 7.99996 20 7.99996C18.727 7.99996 17.5061 8.50568 16.6059 9.40585C15.7057 10.306 15.2 11.5269 15.2 12.8C15.2 14.073 15.7057 15.2939 16.6059 16.1941C17.5061 17.0942 18.727 17.6 20 17.6ZM20 19.2C21.6974 19.2 23.3253 18.5257 24.5255 17.3254C25.7257 16.1252 26.4 14.4973 26.4 12.8C26.4 11.1026 25.7257 9.47471 24.5255 8.27448C23.3253 7.07425 21.6974 6.39996 20 6.39996C18.3026 6.39996 16.6748 7.07425 15.4745 8.27448C14.2743 9.47471 13.6 11.1026 13.6 12.8C13.6 14.4973 14.2743 16.1252 15.4745 17.3254C16.6748 18.5257 18.3026 19.2 20 19.2Z" fill="white"/>
<defs>
<filter id="filter0_d" x="0" y="0" width="40" height="40" filterUnits="userSpaceOnUse" color-interpolation-filters="sRGB">
<feFlood flood-opacity="0" result="BackgroundImageFix"/>
<feColorMatrix in="SourceAlpha" type="matrix" values="0 0 0 0 0 0 0 0 0 0 0 0 0 0 0 0 0 0 127 0" result="hardAlpha"/>
<feOffset dy="4"/>
<feGaussianBlur stdDeviation="2"/>
<feComposite in2="hardAlpha" operator="out"/>
<feColorMatrix type="matrix" values="0 0 0 0 0 0 0 0 0 0 0 0 0 0 0 0 0 0 0.25 0"/>
<feBlend mode="normal" in2="BackgroundImageFix" result="effect1_dropShadow"/>
<feBlend mode="normal" in="SourceGraphic" in2="effect1_dropShadow" result="shape"/>
</filter>
</defs>
</svg>
