<svg width="25" height="20" viewBox="0 0 25 20" fill="none" xmlns="http://www.w3.org/2000/svg">
<path d="M8.75 10C11.5117 10 13.75 7.76172 13.75 5C13.75 2.23828 11.5117 0 8.75 0C5.98828 0 3.75 2.23828 3.75 5C3.75 7.76172 5.98828 10 8.75 10ZM12.25 11.25H11.5977C10.7305 11.6484 9.76562 11.875 8.75 11.875C7.73438 11.875 6.77344 11.6484 5.90234 11.25H5.25C2.35156 11.25 0 13.6016 0 16.5V18.125C0 19.1602 0.839844 20 1.875 20H12.6133C12.5195 19.7344 12.4805 19.4531 12.5117 19.168L12.7773 16.7891L12.8242 16.3555L13.1328 16.0469L16.1523 13.0273C15.1953 11.9453 13.8086 11.25 12.25 11.25ZM14.0195 16.9258L13.7539 19.3086C13.7109 19.707 14.0469 20.043 14.4414 19.9961L16.8203 19.7305L22.207 14.3438L19.4062 11.543L14.0195 16.9258ZM24.7266 10.5039L23.2461 9.02344C22.8828 8.66016 22.2891 8.66016 21.9258 9.02344L20.4492 10.5L20.2891 10.6602L23.0938 13.4609L24.7266 11.8281C25.0898 11.4609 25.0898 10.8711 24.7266 10.5039Z" fill="black"/>
</svg>
