<svg width="34" height="34" viewBox="0 0 34 34" fill="none" xmlns="http://www.w3.org/2000/svg">
<path d="M12.75 3.1875C18.0044 3.1875 22.3125 7.49561 22.3125 12.75C22.3125 13.302 22.2212 13.7876 22.1465 14.2773L30.5137 22.6113L30.8125 22.9434V30.8125H23.375V27.625H20.1875V24.4375H17V21.2832C15.7466 21.8975 14.2856 22.3125 12.75 22.3125C7.49561 22.3125 3.1875 18.0044 3.1875 12.75C3.1875 7.49561 7.49561 3.1875 12.75 3.1875ZM12.75 5.3125C8.65356 5.3125 5.3125 8.65356 5.3125 12.75C5.3125 16.8464 8.65356 20.1875 12.75 20.1875C14.0366 20.1875 15.3606 19.8098 16.3691 19.2578L16.6348 19.125H19.125V22.3125H22.3125V25.5H25.5V28.6875H28.6875V23.8398L20.2871 15.4062L19.8887 15.041L19.9883 14.4766C20.0962 13.8374 20.1875 13.2688 20.1875 12.75C20.1875 8.65356 16.8464 5.3125 12.75 5.3125ZM10.625 8.5C11.7996 8.5 12.75 9.45044 12.75 10.625C12.75 11.7996 11.7996 12.75 10.625 12.75C9.45044 12.75 8.5 11.7996 8.5 10.625C8.5 9.45044 9.45044 8.5 10.625 8.5Z" fill="#FF8E65"/>
</svg>
