<svg width="52" height="52" viewBox="0 0 52 52" fill="none" xmlns="http://www.w3.org/2000/svg">
<path d="M16.25 26C16.25 25.569 16.4212 25.1557 16.726 24.851C17.0307 24.5462 17.444 24.375 17.875 24.375H32.5V13.8125C32.5 10.5625 29.0682 8.125 26 8.125H10.5625C9.05458 8.12661 7.60888 8.72635 6.54261 9.79261C5.47635 10.8589 4.87661 12.3046 4.875 13.8125V38.1875C4.87661 39.6954 5.47635 41.1411 6.54261 42.2074C7.60888 43.2737 9.05458 43.8734 10.5625 43.875H26.8125C28.3204 43.8734 29.7661 43.2737 30.8324 42.2074C31.8987 41.1411 32.4984 39.6954 32.5 38.1875V27.625H17.875C17.444 27.625 17.0307 27.4538 16.726 27.149C16.4212 26.8443 16.25 26.431 16.25 26Z" fill="white"/>
<path d="M46.6487 24.8513L38.5237 16.7263C38.2164 16.4344 37.8074 16.2741 37.3836 16.2796C36.9599 16.285 36.555 16.4557 36.2554 16.7554C35.9557 17.055 35.785 17.4599 35.7795 17.8836C35.7741 18.3074 35.9344 18.7164 36.2263 19.0237L41.5766 24.375H32.5V27.625H41.5766L36.2263 32.9763C36.0691 33.1257 35.9433 33.3051 35.8565 33.5039C35.7697 33.7026 35.7235 33.9167 35.7207 34.1336C35.7179 34.3505 35.7586 34.5657 35.8403 34.7667C35.922 34.9676 36.0432 35.1501 36.1965 35.3035C36.3499 35.4568 36.5324 35.578 36.7333 35.6597C36.9343 35.7414 37.1495 35.7821 37.3664 35.7793C37.5833 35.7765 37.7974 35.7303 37.9962 35.6435C38.1949 35.5567 38.3743 35.4309 38.5237 35.2737L46.6487 27.1487C46.9532 26.844 47.1242 26.4308 47.1242 26C47.1242 25.5692 46.9532 25.156 46.6487 24.8513Z" fill="white"/>
</svg>
