<svg width="34" height="34" viewBox="0 0 34 34" fill="none" xmlns="http://www.w3.org/2000/svg">
<path d="M3.1875 7.4375V26.5625H13.8125V24.4375H5.3125V10.486L17 18.2762L28.6875 10.486V18.0625H30.8125V7.4375H3.1875ZM7.75916 9.5625H26.2408L17 15.7238L7.75916 9.5625ZM28.9158 20.5901C28.9158 20.5901 28.1087 21.6087 27.0813 22.6155C26.5676 23.1189 26.0009 23.6147 25.4958 23.9561C25.0066 24.2868 24.5902 24.4144 24.4707 24.423C24.4616 24.3407 24.4375 24.2163 24.4375 23.9062C24.4375 23.5078 24.4886 22.998 24.2134 22.3789C23.9382 21.7598 23.1094 21.25 22.3125 21.25C21.561 21.25 20.9745 21.5374 20.339 21.8705C19.7035 22.2035 19.0602 22.6221 18.4692 23.0367C17.2874 23.866 16.3152 24.6886 16.3152 24.6886L17.6848 26.3114C17.6848 26.3114 18.6 25.5402 19.6895 24.7758C20.2342 24.3935 20.8219 24.0152 21.3268 23.7506C21.8147 23.4949 22.2332 23.3948 22.2793 23.3875C22.2883 23.4688 22.3125 23.5949 22.3125 23.9062C22.3125 24.3047 22.2614 24.8145 22.5366 25.4336C22.8118 26.0527 23.6406 26.5625 24.4375 26.5625C25.311 26.5625 26.011 26.1714 26.6849 25.7158C27.3589 25.2603 27.9986 24.6936 28.5692 24.1345C29.7104 23.0163 30.5842 21.9099 30.5842 21.9099L28.9158 20.5901Z" fill="#FF8E65"/>
</svg>
