<svg width="151" height="154" viewBox="0 0 151 154" fill="none" xmlns="http://www.w3.org/2000/svg">
<g filter="url(#filter0_d)">
<rect x="20" y="16" width="111" height="114" rx="55.5" fill="url(#paint0_linear)"/>
</g>
<path fill-rule="evenodd" clip-rule="evenodd" d="M75 112C96.5388 112 114 94.5388 114 73C114 51.4611 96.5388 34 75 34C53.4611 34 36 51.4611 36 73C36 94.5388 53.4611 112 75 112ZM75 116.333C98.933 116.333 118.333 96.933 118.333 73C118.333 49.067 98.933 29.6666 75 29.6666C51.067 29.6666 31.6666 49.067 31.6666 73C31.6666 96.933 51.067 116.333 75 116.333Z" fill="white"/>
<path d="M49 98.1983C49 95.9601 50.6727 94.0686 52.9 93.8216C69.6158 91.9713 80.46 92.1381 97.139 93.8628C97.9719 93.9503 98.7613 94.2784 99.4108 94.8071C100.06 95.3358 100.542 96.0422 100.796 96.8401C101.051 97.6379 101.068 98.4926 100.844 99.2998C100.621 100.107 100.168 100.832 99.5397 101.385C79.8555 118.543 68.6062 118.307 50.3867 101.403C49.4983 100.579 49 99.4095 49 98.2005V98.1983Z" fill="white"/>
<path fill-rule="evenodd" clip-rule="evenodd" d="M96.9158 96.0165C80.3689 94.3048 69.6808 94.1444 53.1361 95.9753C52.0224 96.0988 51.1666 97.0499 51.1666 98.2004C51.1666 98.8201 51.4244 99.4073 51.8599 99.8146C60.8906 108.191 67.7329 111.976 74.4214 112C81.1338 112.024 88.3444 108.269 98.1161 99.7539C98.4265 99.4776 98.65 99.1171 98.7594 98.7162C98.8687 98.3152 98.8593 97.8911 98.7321 97.4955C98.605 97.0998 98.3656 96.7496 98.0432 96.4874C97.7207 96.2252 97.329 96.0624 96.9158 96.0186V96.0165ZM52.6616 91.668C69.5529 89.7981 80.5553 89.9671 97.3643 91.7069C98.6172 91.8377 99.8049 92.331 100.782 93.1264C101.759 93.9218 102.483 94.9848 102.865 96.1852C103.247 97.3856 103.271 98.6714 102.933 99.8852C102.596 101.099 101.912 102.188 100.965 103.019C91.0528 111.66 82.7978 116.366 74.4084 116.333C65.9953 116.303 58.1043 111.517 48.9154 102.991C48.2575 102.378 47.7331 101.636 47.3748 100.812C47.0165 99.987 46.8322 99.0974 46.8333 98.1983C46.8301 96.5829 47.423 95.0231 48.4985 93.8177C49.5739 92.6123 51.0563 91.8461 52.6616 91.6658V91.668Z" fill="white"/>
<path d="M92.3333 64.3333C92.3333 68.9304 90.5071 73.3392 87.2565 76.5898C84.0058 79.8405 79.597 81.6666 75 81.6666C70.4029 81.6666 65.9941 79.8405 62.7434 76.5898C59.4928 73.3392 57.6666 68.9304 57.6666 64.3333C57.6666 59.7362 59.4928 55.3274 62.7434 52.0768C65.9941 48.8262 70.4029 47 75 47C79.597 47 84.0058 48.8262 87.2565 52.0768C90.5071 55.3274 92.3333 59.7362 92.3333 64.3333Z" fill="white"/>
<path fill-rule="evenodd" clip-rule="evenodd" d="M75 77.3333C78.4478 77.3333 81.7544 75.9637 84.1924 73.5257C86.6303 71.0877 88 67.7811 88 64.3333C88 60.8855 86.6303 57.5789 84.1924 55.1409C81.7544 52.7029 78.4478 51.3333 75 51.3333C71.5521 51.3333 68.2455 52.7029 65.8076 55.1409C63.3696 57.5789 62 60.8855 62 64.3333C62 67.7811 63.3696 71.0877 65.8076 73.5257C68.2455 75.9637 71.5521 77.3333 75 77.3333ZM75 81.6666C79.597 81.6666 84.0058 79.8405 87.2565 76.5898C90.5071 73.3392 92.3333 68.9304 92.3333 64.3333C92.3333 59.7362 90.5071 55.3274 87.2565 52.0768C84.0058 48.8262 79.597 47 75 47C70.4029 47 65.9941 48.8262 62.7434 52.0768C59.4928 55.3274 57.6666 59.7362 57.6666 64.3333C57.6666 68.9304 59.4928 73.3392 62.7434 76.5898C65.9941 79.8405 70.4029 81.6666 75 81.6666Z" fill="white"/>
<defs>
<filter id="filter0_d" x="0" y="0" width="151" height="154" filterUnits="userSpaceOnUse" color-interpolation-filters="sRGB">
<feFlood flood-opacity="0" result="BackgroundImageFix"/>
<feColorMatrix in="SourceAlpha" type="matrix" values="0 0 0 0 0 0 0 0 0 0 0 0 0 0 0 0 0 0 127 0" result="hardAlpha"/>
<feOffset dy="4"/>
<feGaussianBlur stdDeviation="10"/>
<feComposite in2="hardAlpha" operator="out"/>
<feColorMatrix type="matrix" values="0 0 0 0 0 0 0 0 0 0 0 0 0 0 0 0 0 0 0.49 0"/>
<feBlend mode="normal" in2="BackgroundImageFix" result="effect1_dropShadow"/>
<feBlend mode="normal" in="SourceGraphic" in2="effect1_dropShadow" result="shape"/>
</filter>
<linearGradient id="paint0_linear" x1="20" y1="16" x2="131" y2="130" gradientUnits="userSpaceOnUse">
<stop stop-color="#5647A8"/>
<stop offset="1" stop-color="#3A2A83"/>
</linearGradient>
</defs>
</svg>
