<svg width="151" height="154" viewBox="0 0 151 154" fill="none" xmlns="http://www.w3.org/2000/svg">
<g filter="url(#filter0_d)">
<rect x="20" y="16" width="111" height="114" rx="55.5" fill="url(#paint0_linear)"/>
</g>
<path fill-rule="evenodd" clip-rule="evenodd" d="M75.3333 112.333C96.8722 112.333 114.333 94.8722 114.333 73.3333C114.333 51.7945 96.8722 34.3333 75.3333 34.3333C53.7945 34.3333 36.3333 51.7945 36.3333 73.3333C36.3333 94.8722 53.7945 112.333 75.3333 112.333ZM75.3333 116.667C99.2663 116.667 118.667 97.2663 118.667 73.3333C118.667 49.4003 99.2663 30 75.3333 30C51.4003 30 32 49.4003 32 73.3333C32 97.2663 51.4003 116.667 75.3333 116.667Z" fill="white"/>
<path d="M89 57H87V55C87 53.8 86.2 53 85 53C83.8 53 83 53.8 83 55V57H67V55C67 53.8 66.2 53 65 53C63.8 53 63 53.8 63 55V57H61C57.6 57 55 59.6 55 63V65H95V63C95 59.6 92.4 57 89 57ZM55 87C55 90.4 57.6 93 61 93H89C92.4 93 95 90.4 95 87V69H55V87ZM85 73C86.2 73 87 73.8 87 75C87 76.2 86.2 77 85 77C83.8 77 83 76.2 83 75C83 73.8 83.8 73 85 73ZM85 81C86.2 81 87 81.8 87 83C87 84.2 86.2 85 85 85C83.8 85 83 84.2 83 83C83 81.8 83.8 81 85 81ZM75 73C76.2 73 77 73.8 77 75C77 76.2 76.2 77 75 77C73.8 77 73 76.2 73 75C73 73.8 73.8 73 75 73ZM75 81C76.2 81 77 81.8 77 83C77 84.2 76.2 85 75 85C73.8 85 73 84.2 73 83C73 81.8 73.8 81 75 81ZM65 73C66.2 73 67 73.8 67 75C67 76.2 66.2 77 65 77C63.8 77 63 76.2 63 75C63 73.8 63.8 73 65 73ZM65 81C66.2 81 67 81.8 67 83C67 84.2 66.2 85 65 85C63.8 85 63 84.2 63 83C63 81.8 63.8 81 65 81Z" fill="white"/>
<defs>
<filter id="filter0_d" x="0" y="0" width="151" height="154" filterUnits="userSpaceOnUse" color-interpolation-filters="sRGB">
<feFlood flood-opacity="0" result="BackgroundImageFix"/>
<feColorMatrix in="SourceAlpha" type="matrix" values="0 0 0 0 0 0 0 0 0 0 0 0 0 0 0 0 0 0 127 0" result="hardAlpha"/>
<feOffset dy="4"/>
<feGaussianBlur stdDeviation="10"/>
<feComposite in2="hardAlpha" operator="out"/>
<feColorMatrix type="matrix" values="0 0 0 0 0 0 0 0 0 0 0 0 0 0 0 0 0 0 0.49 0"/>
<feBlend mode="normal" in2="BackgroundImageFix" result="effect1_dropShadow"/>
<feBlend mode="normal" in="SourceGraphic" in2="effect1_dropShadow" result="shape"/>
</filter>
<linearGradient id="paint0_linear" x1="20" y1="16" x2="131" y2="130" gradientUnits="userSpaceOnUse">
<stop stop-color="#5647A8"/>
<stop offset="1" stop-color="#3A2A83"/>
</linearGradient>
</defs>
</svg>
