<svg width="17" height="18" viewBox="0 0 17 18" fill="none" xmlns="http://www.w3.org/2000/svg">
<path d="M16.3929 1.08631H11.8393L11.4826 0.451502C11.407 0.315787 11.2906 0.201625 11.1465 0.121862C11.0024 0.0420984 10.8362 -0.000102791 10.6667 5.95185e-06H6.32946C6.16037 -0.00057558 5.99451 0.0414683 5.85089 0.121321C5.70726 0.201173 5.59169 0.315604 5.51741 0.451502L5.16071 1.08631H0.607143C0.446119 1.08631 0.291689 1.14354 0.177828 1.2454C0.0639667 1.34726 0 1.48541 0 1.62947L0 2.71577C0 2.85983 0.0639667 2.99798 0.177828 3.09984C0.291689 3.2017 0.446119 3.25893 0.607143 3.25893H16.3929C16.5539 3.25893 16.7083 3.2017 16.8222 3.09984C16.936 2.99798 17 2.85983 17 2.71577V1.62947C17 1.48541 16.936 1.34726 16.8222 1.2454C16.7083 1.14354 16.5539 1.08631 16.3929 1.08631ZM2.01875 15.8533C2.04771 16.267 2.2518 16.6552 2.58949 16.9391C2.92717 17.2229 3.37306 17.3809 3.83638 17.3809H13.1636C13.6269 17.3809 14.0728 17.2229 14.4105 16.9391C14.7482 16.6552 14.9523 16.267 14.9812 15.8533L15.7857 4.34523H1.21429L2.01875 15.8533Z" fill="#BDBDBD"/>
</svg>
